<svg width="24" height="18" viewBox="0 0 24 18" fill="none" xmlns="http://www.w3.org/2000/svg">
<path d="M23.9821 15.8251C23.8321 14.9101 22.9171 14.3701 21.7456 13.6951C20.5741 13.0051 19.1041 12.1501 18.1141 10.7551C17.3941 9.75007 17.0326 8.19007 16.7341 6.93007C16.5541 6.13507 16.3891 5.44507 16.1641 4.95007C15.9541 4.42507 15.4441 4.08007 14.8576 4.08007C14.5426 4.09507 12.9361 4.11007 11.8561 3.24007C11.1361 2.65507 10.8361 1.86007 10.5661 1.09507L10.4911 0.885066C10.3411 0.480066 10.0411 0.195066 9.65105 0.060066C9.25955 -0.059934 8.79455 6.61761e-05 8.40455 0.255066C6.57305 1.41007 5.16305 2.53507 3.45155 4.90507C2.79155 5.86507 2.85155 6.84007 3.63155 7.60507L13.8676 17.0101C14.8876 17.8201 16.0891 18.0001 17.9341 18.0001H18.1741C18.7891 17.9851 19.2991 18.0001 19.8391 18.0001H20.7406C21.9106 18.0001 22.8271 18.0001 23.4871 17.2501C23.8921 16.7851 24.0571 16.3051 23.9821 15.8251ZM13.7176 6.99007C13.7176 6.58507 14.0476 6.24007 14.4676 6.24007C14.8726 6.24007 15.2176 6.58507 15.2176 6.99007C15.2176 7.41007 14.8726 7.74007 14.4676 7.74007C14.0476 7.74007 13.7176 7.41007 13.7176 6.99007ZM14.3326 9.24007C14.3326 8.83507 14.6626 8.49007 15.0826 8.49007C15.4876 8.49007 15.8326 8.83507 15.8326 9.24007C15.8326 9.66007 15.4876 9.99007 15.0826 9.99007C14.6626 9.99007 14.3326 9.66007 14.3326 9.24007ZM15.9691 12.2401C15.5491 12.2401 15.2191 11.9101 15.2191 11.4901C15.2191 11.0851 15.5491 10.7401 15.9691 10.7401C16.3741 10.7401 16.7191 11.0851 16.7191 11.4901C16.7191 11.9101 16.3741 12.2401 15.9691 12.2401Z" fill="#8E9296"/>
<path d="M9.753 17.9416H0.75C0.3345 17.9416 0 17.6056 0 17.1916C0 16.7776 0.336 16.5001 0.75 16.5001H9.7515C10.167 16.5001 10.5015 16.7761 10.5015 17.1901C10.5015 17.6041 10.1685 17.9416 9.753 17.9416Z" fill="#8E9296"/>
<path d="M6.753 14.9416H0.75C0.3345 14.9416 0 14.6056 0 14.1916C0 13.7776 0.336 13.5001 0.75 13.5001H6.753C7.167 13.5001 7.503 13.7761 7.503 14.1901C7.503 14.6041 7.1685 14.9416 6.753 14.9416Z" fill="#8E9296"/>
<path d="M3.75 11.9416H0.75C0.3345 11.9416 0 11.6056 0 11.1916C0 10.7776 0.336 10.5001 0.75 10.5001H3.75C4.164 10.5001 4.5 10.7776 4.5 11.1916C4.5 11.6056 4.164 11.9416 3.75 11.9416Z" fill="#8E9296"/>
</svg>
