<svg width="24" height="24" viewBox="0 0 24 24" fill="none" xmlns="http://www.w3.org/2000/svg">
<path d="M21.75 0H17.766H6.1365H2.25C1.836 0 1.5 0.336 1.5 0.75C1.5 3.909 3.8145 9.8175 7.0545 10.437C7.866 12.8475 8.9565 14.895 10.275 15.873C9.5475 18.7305 6.894 19.1205 5.6955 19.5C5.343 19.611 5.1225 19.9635 5.1795 20.3295C5.2365 20.6955 5.55 20.9655 5.9205 20.9655H17.9805C18.351 20.9655 18.6645 20.6955 18.7215 20.3295C18.7785 19.9635 18.5595 19.611 18.2055 19.5C17.0085 19.1205 14.3565 18.7305 13.6305 15.8685C14.9475 14.889 16.035 12.8445 16.8465 10.4385C19.9155 9.819 22.5 4.218 22.5 0.75C22.5 0.336 22.164 0 21.75 0ZM3.045 1.5H5.406C5.4795 3.582 5.8575 6.144 6.498 8.571C4.8825 7.4085 3.318 4.0755 3.045 1.5ZM17.3985 8.592C18.042 6.1575 18.42 3.588 18.495 1.5H20.9535C20.673 4.092 19.059 7.449 17.3985 8.592Z" fill="#8E9296"/>
<path d="M17.9805 22.5H5.92053C5.50653 22.5 5.17053 22.836 5.17053 23.25C5.17053 23.664 5.50653 24 5.92053 24H17.9805C18.3945 24 18.7305 23.664 18.7305 23.25C18.7305 22.836 18.396 22.5 17.9805 22.5Z" fill="#8E9296"/>
</svg>
