<svg width="16" height="16" viewBox="0 0 16 16" fill="none" xmlns="http://www.w3.org/2000/svg">
<path fill-rule="evenodd" clip-rule="evenodd" d="M4.66667 10.6667C4.66667 10.3 4.96667 10 5.33333 10C5.7 10 6 10.3 6 10.6667C6 11.0334 5.7 11.3334 5.33333 11.3334C4.96667 11.3334 4.66667 11.0334 4.66667 10.6667ZM8.00001 10H10.6667C11.0333 10 11.3333 10.3 11.3333 10.6667C11.3333 11.0334 11.0333 11.3334 10.6667 11.3334H8.00001C7.63334 11.3334 7.33334 11.0334 7.33334 10.6667C7.33334 10.3 7.63334 10 8.00001 10ZM12 13.3334H4C3.63267 13.3334 3.33333 13.034 3.33333 12.6667V8.66671H12.6667V12.6667C12.6667 13.034 12.3673 13.3334 12 13.3334ZM4 4.00005H4.66667V4.66671C4.66667 5.03338 4.96667 5.33338 5.33333 5.33338C5.7 5.33338 6 5.03338 6 4.66671V4.00005H10V4.66671C10 5.03338 10.3 5.33338 10.6667 5.33338C11.0333 5.33338 11.3333 5.03338 11.3333 4.66671V4.00005H12C12.3673 4.00005 12.6667 4.29938 12.6667 4.66671V7.33338H3.33333V4.66671C3.33333 4.29938 3.63267 4.00005 4 4.00005ZM12 2.66671H11.3333V2.00004C11.3333 1.63337 11.0333 1.33337 10.6667 1.33337C10.3 1.33337 10 1.63337 10 2.00004V2.66671H6V2.00004C6 1.63337 5.7 1.33337 5.33333 1.33337C4.96667 1.33337 4.66667 1.63337 4.66667 2.00004V2.66671H4C2.89733 2.66671 2 3.56404 2 4.66671V12.6667C2 13.7694 2.89733 14.6667 4 14.6667H12C13.1027 14.6667 14 13.7694 14 12.6667V4.66671C14 3.56404 13.1027 2.66671 12 2.66671Z" fill="#1A1A1A"/>
<mask id="mask0" mask-type="alpha" maskUnits="userSpaceOnUse" x="2" y="1" width="12" height="14">
<path fill-rule="evenodd" clip-rule="evenodd" d="M4.66667 10.6667C4.66667 10.3 4.96667 10 5.33333 10C5.7 10 6 10.3 6 10.6667C6 11.0334 5.7 11.3334 5.33333 11.3334C4.96667 11.3334 4.66667 11.0334 4.66667 10.6667ZM8.00001 10H10.6667C11.0333 10 11.3333 10.3 11.3333 10.6667C11.3333 11.0334 11.0333 11.3334 10.6667 11.3334H8.00001C7.63334 11.3334 7.33334 11.0334 7.33334 10.6667C7.33334 10.3 7.63334 10 8.00001 10ZM12 13.3334H4C3.63267 13.3334 3.33333 13.034 3.33333 12.6667V8.66671H12.6667V12.6667C12.6667 13.034 12.3673 13.3334 12 13.3334ZM4 4.00005H4.66667V4.66671C4.66667 5.03338 4.96667 5.33338 5.33333 5.33338C5.7 5.33338 6 5.03338 6 4.66671V4.00005H10V4.66671C10 5.03338 10.3 5.33338 10.6667 5.33338C11.0333 5.33338 11.3333 5.03338 11.3333 4.66671V4.00005H12C12.3673 4.00005 12.6667 4.29938 12.6667 4.66671V7.33338H3.33333V4.66671C3.33333 4.29938 3.63267 4.00005 4 4.00005ZM12 2.66671H11.3333V2.00004C11.3333 1.63337 11.0333 1.33337 10.6667 1.33337C10.3 1.33337 10 1.63337 10 2.00004V2.66671H6V2.00004C6 1.63337 5.7 1.33337 5.33333 1.33337C4.96667 1.33337 4.66667 1.63337 4.66667 2.00004V2.66671H4C2.89733 2.66671 2 3.56404 2 4.66671V12.6667C2 13.7694 2.89733 14.6667 4 14.6667H12C13.1027 14.6667 14 13.7694 14 12.6667V4.66671C14 3.56404 13.1027 2.66671 12 2.66671Z" fill="white"/>
</mask>
<g mask="url(#mask0)">
<rect width="16" height="16" fill="#1A1A1A"/>
</g>
</svg>
