<svg width="24" height="24" viewBox="0 0 24 24" fill="none" xmlns="http://www.w3.org/2000/svg">
<path d="M14.25 1.515C14.19 1.125 13.89 -0.12 12.09 0.015C10.185 0.15 7.605 0.75 3 3.78V0.75C3 0.345 2.655 0 2.25 0C1.83 0 1.5 0.345 1.5 0.75V23.25C1.5 23.67 1.83 24 2.25 24C2.655 24 3 23.67 3 23.25V15.255C3.57 14.865 4.11 14.505 4.62 14.19C5.295 13.755 5.91 13.395 6.48 13.095C7.485 12.54 8.355 12.15 9.12 11.865C9.36 11.775 9.6 11.7 9.825 11.625C10.0635 11.55 10.2885 11.49 10.5 11.445C11.22 11.265 11.85 11.19 12.42 11.145C13.14 11.085 13.77 11.235 14.25 11.55C14.265 11.13 14.25 10.005 14.25 8.985V1.515Z" fill="#8E9296"/>
<path d="M22.1384 11.355L18.3284 9.07499L22.3619 3.43499C22.4969 3.23999 22.5419 2.98499 22.4519 2.75999C22.3919 2.56499 22.2419 2.39999 22.0469 2.30999C21.8519 2.21999 21.6419 2.23499 21.4469 2.30999L15.7469 4.79999V8.96999C15.7469 9.94499 15.7619 11.64 15.7319 11.895C15.6449 12.648 15.3884 13.4655 15.0314 14.292C14.7614 14.916 15.3839 15.549 16.0094 15.2805L22.0454 12.69C22.3004 12.585 22.4804 12.33 22.4954 12.045C22.5134 11.775 22.3784 11.505 22.1384 11.355Z" fill="#8E9296"/>
</svg>
