<svg width="16" height="16" viewBox="0 0 16 16" fill="none" xmlns="http://www.w3.org/2000/svg">
<path fill-rule="evenodd" clip-rule="evenodd" d="M8.00002 7.33304C7.44868 7.33304 7.00002 6.88438 7.00002 6.33304C7.00002 5.78171 7.44868 5.33304 8.00002 5.33304C8.55135 5.33304 9.00002 5.78171 9.00002 6.33304C9.00002 6.88438 8.55135 7.33304 8.00002 7.33304ZM8.00002 3.99971C6.71335 3.99971 5.66668 5.04638 5.66668 6.33304C5.66668 7.61971 6.71335 8.66638 8.00002 8.66638C9.28668 8.66638 10.3333 7.61971 10.3333 6.33304C10.3333 5.04638 9.28668 3.99971 8.00002 3.99971ZM8.00002 13.0974C6.88335 12.0414 4.00002 9.07671 4.00002 6.61471C4.00002 4.43805 5.79402 2.66671 8.00002 2.66671C10.206 2.66671 12 4.43805 12 6.61471C12 9.07671 9.11668 12.0414 8.00002 13.0974ZM8.00001 1.33337C5.05934 1.33337 2.66667 3.70204 2.66667 6.61471C2.66667 10.2647 7.36601 14.334 7.56601 14.5054C7.69134 14.6127 7.84534 14.6667 8.00001 14.6667C8.15467 14.6667 8.30867 14.6127 8.43401 14.5054C8.63401 14.334 13.3333 10.2647 13.3333 6.61471C13.3333 3.70204 10.9407 1.33337 8.00001 1.33337Z" fill="#1A1A1A"/>
<mask id="mask0" mask-type="alpha" maskUnits="userSpaceOnUse" x="2" y="1" width="12" height="14">
<path fill-rule="evenodd" clip-rule="evenodd" d="M8.00002 7.33304C7.44868 7.33304 7.00002 6.88438 7.00002 6.33304C7.00002 5.78171 7.44868 5.33304 8.00002 5.33304C8.55135 5.33304 9.00002 5.78171 9.00002 6.33304C9.00002 6.88438 8.55135 7.33304 8.00002 7.33304ZM8.00002 3.99971C6.71335 3.99971 5.66668 5.04638 5.66668 6.33304C5.66668 7.61971 6.71335 8.66638 8.00002 8.66638C9.28668 8.66638 10.3333 7.61971 10.3333 6.33304C10.3333 5.04638 9.28668 3.99971 8.00002 3.99971ZM8.00002 13.0974C6.88335 12.0414 4.00002 9.07671 4.00002 6.61471C4.00002 4.43805 5.79402 2.66671 8.00002 2.66671C10.206 2.66671 12 4.43805 12 6.61471C12 9.07671 9.11668 12.0414 8.00002 13.0974ZM8.00001 1.33337C5.05934 1.33337 2.66667 3.70204 2.66667 6.61471C2.66667 10.2647 7.36601 14.334 7.56601 14.5054C7.69134 14.6127 7.84534 14.6667 8.00001 14.6667C8.15467 14.6667 8.30867 14.6127 8.43401 14.5054C8.63401 14.334 13.3333 10.2647 13.3333 6.61471C13.3333 3.70204 10.9407 1.33337 8.00001 1.33337Z" fill="white"/>
</mask>
<g mask="url(#mask0)">
<rect width="16" height="16" fill="#1A1A1A"/>
</g>
</svg>
